<?xml version="1.0" encoding="UTF-8"?>
<svg version="1.1" xmlns="http://www.w3.org/2000/svg" width="1024" height="1024">
<path d="M0 0 C337.92 0 675.84 0 1024 0 C1024 337.92 1024 675.84 1024 1024 C686.08 1024 348.16 1024 0 1024 C0 686.08 0 348.16 0 0 Z " fill="#FEFEFE" transform="translate(0,0)"/>
<path d="M0 0 C2.93935755 -0.00218179 5.87833545 -0.02040997 8.81762695 -0.03930664 C27.2925032 -0.09610613 45.45802868 1.19760036 63.58520508 4.87280273 C64.23325104 5.00224274 64.881297 5.13168274 65.54898071 5.26504517 C123.57945542 16.90279549 178.02035169 43.95151208 221.76879883 83.90795898 C223.5371567 85.51630944 225.3227981 87.10575465 227.12036133 88.68139648 C228.03688477 89.48706055 228.9534082 90.29272461 229.89770508 91.12280273 C231.15454102 92.21915039 231.15454102 92.21915039 232.43676758 93.33764648 C234.27270508 95.18530273 234.27270508 95.18530273 234.27270508 97.18530273 C234.93270508 97.18530273 235.59270508 97.18530273 236.27270508 97.18530273 C237.61254883 98.51342773 237.61254883 98.51342773 239.21020508 100.43530273 C242.17362277 103.93641271 245.24759241 107.28874188 248.39770508 110.62280273 C255.26830131 118.02897149 261.28088634 126.06390535 267.27270508 134.18530273 C268.0408252 135.2161499 268.0408252 135.2161499 268.82446289 136.26782227 C276.74092152 146.93595027 283.52079037 158.07020711 289.91040039 169.71166992 C291.13507675 171.93540125 292.38327907 174.14359608 293.63989258 176.34936523 C303.25052211 193.51044981 310.65650202 212.3520203 316.27270508 231.18530273 C316.47025391 231.82532227 316.66780273 232.4653418 316.87133789 233.12475586 C319.78547109 242.61495015 321.99623058 252.19313569 323.89770508 261.93530273 C324.09170898 262.92054932 324.28571289 263.9057959 324.4855957 264.92089844 C325.12834096 268.33589115 325.70995426 271.75616177 326.27270508 275.18530273 C326.40118835 275.95317108 326.52967163 276.72103943 326.66204834 277.51217651 C329.11244068 292.47043625 329.76191117 307.10665056 329.64770508 322.24780273 C329.64272003 323.36459412 329.63773499 324.4813855 329.63259888 325.63201904 C329.20973558 406.63817021 300.8190715 483.64255452 245.62036133 543.61889648 C243.5694641 545.86089229 241.56792974 548.13321302 239.58520508 550.43530273 C233.95122246 556.89858653 227.78079149 562.61788091 221.27270508 568.18530273 C219.92112305 569.3705957 219.92112305 569.3705957 218.54223633 570.57983398 C197.18651308 589.1652917 173.41714939 604.274382 148.27270508 617.18530273 C147.43529785 617.61552734 146.59789062 618.04575195 145.73510742 618.48901367 C133.52054352 624.64555759 120.84685132 629.23427622 107.89770508 633.56030273 C107.14197205 633.81360352 106.38623901 634.0669043 105.60760498 634.32788086 C91.11866423 639.15450851 76.524543 642.9165472 61.52270508 645.81030273 C60.52239258 646.01397461 59.52208008 646.21764648 58.49145508 646.42749023 C39.54840055 650.10300828 20.57984372 650.59132209 1.33520508 650.56030273 C0.1217038 650.56009125 -1.09179749 650.55987976 -2.34207153 650.55966187 C-20.51041236 650.52807569 -37.8752608 649.74751384 -55.72729492 646.18530273 C-57.76215687 645.81778408 -59.79731444 645.45189847 -61.83276367 645.08764648 C-108.44292083 636.39385527 -153.81470649 616.72636961 -191.72729492 588.18530273 C-192.26370605 587.78633789 -192.80011719 587.38737305 -193.3527832 586.97631836 C-211.47651448 573.47726334 -229.02917814 558.38131056 -243.72729492 541.18530273 C-244.63096196 540.16593663 -245.53599771 539.14778284 -246.44213867 538.13061523 C-296.68316897 481.27010296 -325.3835081 405.48916983 -324.93310547 329.67529297 C-324.91475225 326.49039708 -324.91259753 323.3057932 -324.9128418 320.12084961 C-324.88267744 302.21917093 -324.24194411 284.78280854 -320.72729492 267.18530273 C-320.39882568 265.5255542 -320.39882568 265.5255542 -320.0637207 263.83227539 C-308.2086624 205.12113734 -281.30464017 151.45727491 -240.68041992 107.32592773 C-238.927122 105.40431321 -237.26545021 103.43444899 -235.60229492 101.43530273 C-188.97265008 48.0212061 -117.57548643 14.13934614 -48.53979492 2.81030273 C-47.59821533 2.65464844 -46.65663574 2.49899414 -45.68652344 2.33862305 C-30.56338063 0.04568753 -15.26196908 -0.00126059 0 0 Z " fill="#FCFCFC" transform="translate(509.727294921875,142.814697265625)"/>
<path d="M0 0 C2.93935755 -0.00218179 5.87833545 -0.02040997 8.81762695 -0.03930664 C27.2925032 -0.09610613 45.45802868 1.19760036 63.58520508 4.87280273 C64.23325104 5.00224274 64.881297 5.13168274 65.54898071 5.26504517 C123.57945542 16.90279549 178.02035169 43.95151208 221.76879883 83.90795898 C223.5371567 85.51630944 225.3227981 87.10575465 227.12036133 88.68139648 C228.03688477 89.48706055 228.9534082 90.29272461 229.89770508 91.12280273 C231.15454102 92.21915039 231.15454102 92.21915039 232.43676758 93.33764648 C234.27270508 95.18530273 234.27270508 95.18530273 234.27270508 97.18530273 C234.93270508 97.18530273 235.59270508 97.18530273 236.27270508 97.18530273 C237.61254883 98.51342773 237.61254883 98.51342773 239.21020508 100.43530273 C242.17362277 103.93641271 245.24759241 107.28874188 248.39770508 110.62280273 C255.26830131 118.02897149 261.28088634 126.06390535 267.27270508 134.18530273 C268.0408252 135.2161499 268.0408252 135.2161499 268.82446289 136.26782227 C276.74092152 146.93595027 283.52079037 158.07020711 289.91040039 169.71166992 C291.13507675 171.93540125 292.38327907 174.14359608 293.63989258 176.34936523 C303.25052211 193.51044981 310.65650202 212.3520203 316.27270508 231.18530273 C316.47025391 231.82532227 316.66780273 232.4653418 316.87133789 233.12475586 C319.78547109 242.61495015 321.99623058 252.19313569 323.89770508 261.93530273 C324.09170898 262.92054932 324.28571289 263.9057959 324.4855957 264.92089844 C325.12834096 268.33589115 325.70995426 271.75616177 326.27270508 275.18530273 C326.40118835 275.95317108 326.52967163 276.72103943 326.66204834 277.51217651 C329.11244068 292.47043625 329.76191117 307.10665056 329.64770508 322.24780273 C329.64272003 323.36459412 329.63773499 324.4813855 329.63259888 325.63201904 C329.20973558 406.63817021 300.8190715 483.64255452 245.62036133 543.61889648 C243.5694641 545.86089229 241.56792974 548.13321302 239.58520508 550.43530273 C233.95122246 556.89858653 227.78079149 562.61788091 221.27270508 568.18530273 C219.92112305 569.3705957 219.92112305 569.3705957 218.54223633 570.57983398 C197.18651308 589.1652917 173.41714939 604.274382 148.27270508 617.18530273 C147.43529785 617.61552734 146.59789062 618.04575195 145.73510742 618.48901367 C133.52054352 624.64555759 120.84685132 629.23427622 107.89770508 633.56030273 C107.14197205 633.81360352 106.38623901 634.0669043 105.60760498 634.32788086 C91.11866423 639.15450851 76.524543 642.9165472 61.52270508 645.81030273 C60.52239258 646.01397461 59.52208008 646.21764648 58.49145508 646.42749023 C39.54840055 650.10300828 20.57984372 650.59132209 1.33520508 650.56030273 C0.1217038 650.56009125 -1.09179749 650.55987976 -2.34207153 650.55966187 C-20.51041236 650.52807569 -37.8752608 649.74751384 -55.72729492 646.18530273 C-57.76215687 645.81778408 -59.79731444 645.45189847 -61.83276367 645.08764648 C-108.44292083 636.39385527 -153.81470649 616.72636961 -191.72729492 588.18530273 C-192.26370605 587.78633789 -192.80011719 587.38737305 -193.3527832 586.97631836 C-211.47651448 573.47726334 -229.02917814 558.38131056 -243.72729492 541.18530273 C-244.63096196 540.16593663 -245.53599771 539.14778284 -246.44213867 538.13061523 C-296.68316897 481.27010296 -325.3835081 405.48916983 -324.93310547 329.67529297 C-324.91475225 326.49039708 -324.91259753 323.3057932 -324.9128418 320.12084961 C-324.88267744 302.21917093 -324.24194411 284.78280854 -320.72729492 267.18530273 C-320.39882568 265.5255542 -320.39882568 265.5255542 -320.0637207 263.83227539 C-308.2086624 205.12113734 -281.30464017 151.45727491 -240.68041992 107.32592773 C-238.927122 105.40431321 -237.26545021 103.43444899 -235.60229492 101.43530273 C-188.97265008 48.0212061 -117.57548643 14.13934614 -48.53979492 2.81030273 C-47.59821533 2.65464844 -46.65663574 2.49899414 -45.68652344 2.33862305 C-30.56338063 0.04568753 -15.26196908 -0.00126059 0 0 Z M-19.89282227 22.29077148 C-61.32785505 24.03572113 -103.4106022 37.79465342 -139.72729492 57.18530273 C-140.42983398 57.5559082 -141.13237305 57.92651367 -141.85620117 58.30834961 C-198.89421827 88.53749271 -243.13092368 136.18929273 -272.72729492 193.18530273 C-273.1048291 193.91152832 -273.48236328 194.63775391 -273.87133789 195.38598633 C-291.59382202 229.99019793 -302.72686114 270.99128844 -302.93041992 310.02124023 C-302.93747955 310.93012497 -302.94453918 311.8390097 -302.95181274 312.7754364 C-303.16100826 347.68489241 -301.03065338 381.94736792 -289.40454102 415.22875977 C-288.6592135 417.38198784 -287.95293344 419.54625315 -287.24682617 421.71264648 C-278.35641196 448.53815203 -266.11016504 474.12751238 -249.72729492 497.18530273 C-249.19201172 497.94230469 -248.65672852 498.69930664 -248.10522461 499.47924805 C-240.864086 509.66427135 -233.3534873 519.14766368 -224.72729492 528.18530273 C-223.57296623 529.51128806 -222.42624554 530.84396318 -221.28979492 532.18530273 C-214.02756067 540.52213967 -206.13504844 548.13263387 -197.46948242 554.99389648 C-195.65111808 556.4470338 -193.86347927 557.93952983 -192.11010742 559.47045898 C-173.39941079 575.76943693 -151.11642061 588.61574025 -128.72729492 599.18530273 C-127.55312012 599.74048584 -127.55312012 599.74048584 -126.35522461 600.30688477 C-115.03682973 605.61837256 -103.67776917 610.48559991 -91.72729492 614.18530273 C-90.39625732 614.5986084 -90.39625732 614.5986084 -89.03833008 615.02026367 C-75.17804632 619.22831056 -61.24586563 622.18064399 -46.97729492 624.56030273 C-45.84219986 624.75136597 -45.84219986 624.75136597 -44.68417358 624.94628906 C-29.50466916 627.47335231 -14.4840822 628.39217879 0.89770508 628.37280273 C1.6411618 628.37286316 2.38461853 628.37292358 3.15060425 628.37298584 C14.24126787 628.36019778 25.16020675 627.91460271 36.16235352 626.44995117 C38.23138158 626.1904849 40.29663909 625.99432043 42.37426758 625.81811523 C54.30779063 624.74584007 65.76925122 621.91573818 77.35473633 618.93481445 C79.88627017 618.2845627 82.42185966 617.65587606 84.96020508 617.03295898 C148.07961355 601.05590353 207.16612195 559.99804615 246.27270508 508.18530273 C246.74095703 507.56864746 247.20920898 506.95199219 247.69165039 506.31665039 C254.06278329 497.89780845 259.97257761 489.32895793 265.27270508 480.18530273 C265.65249512 479.53787109 266.03228516 478.89043945 266.42358398 478.22338867 C285.08282609 446.25544026 297.73020037 411.78590724 303.27270508 375.18530273 C303.45607422 374.00129883 303.63944336 372.81729492 303.82836914 371.59741211 C312.92344194 311.17904358 304.81384373 251.51412416 278.27270508 196.18530273 C277.65511653 194.85866644 277.03791135 193.53185159 276.42114258 192.20483398 C267.5738043 173.52105822 256.26048404 156.22695293 243.27270508 140.18530273 C242.44015975 139.14013911 241.60809103 138.09459557 240.77661133 137.04858398 C236.46576847 131.69178272 231.96336284 126.53975579 227.32739258 121.46264648 C225.5670471 119.51154113 223.88086184 117.5251673 222.21020508 115.49780273 C219.49875065 112.29948495 216.45653048 109.63737147 213.26489258 106.92749023 C211.39764773 105.29456631 209.68008112 103.59601135 207.96020508 101.81030273 C203.4037416 97.19212644 198.35211883 93.20925389 193.27270508 89.18530273 C192.25950195 88.37834961 191.24629883 87.57139648 190.20239258 86.73999023 C147.61638499 53.17957526 95.80204845 31.80342068 42.14770508 24.43530273 C41.36999756 24.32757538 40.59229004 24.21984802 39.79101562 24.1088562 C19.88820811 21.42513126 0.1345749 21.6235005 -19.89282227 22.29077148 Z " fill="#030303" transform="translate(509.727294921875,142.814697265625)"/>
<path d="M0 0 C2.43627587 1.32439296 4.55246877 2.74797478 6.7578125 4.42578125 C25.10977506 17.4724567 46.69558102 25.40528916 68.5078125 30.36328125 C69.50288818 30.59289551 69.50288818 30.59289551 70.51806641 30.82714844 C77.80144665 32.47950847 85.05569126 33.61007758 92.46875 34.4453125 C93.63506958 34.57951599 93.63506958 34.57951599 94.82495117 34.71643066 C96.71900588 34.93407953 98.61337715 35.14897074 100.5078125 35.36328125 C100.55471444 49.48096423 100.58975659 63.59863498 100.61143684 77.71638012 C100.6218456 84.27278037 100.63595148 90.82912805 100.65869141 97.38549805 C100.68052372 103.72028936 100.69240297 110.05503029 100.69756699 116.38985634 C100.70124415 118.79899195 100.70842444 121.208125 100.71927261 123.617239 C100.84918462 153.68053702 100.84918462 153.68053702 97.5078125 160.36328125 C95.75219727 160.90991211 95.75219727 160.90991211 93.44921875 161.328125 C92.59682617 161.48700195 91.74443359 161.64587891 90.86621094 161.80957031 C89.94356445 161.97166992 89.02091797 162.13376953 88.0703125 162.30078125 C87.12833008 162.4719043 86.18634766 162.64302734 85.21582031 162.81933594 C83.26658363 163.17094497 81.31653213 163.51806446 79.36572266 163.86083984 C76.71706371 164.32649337 74.07137838 164.80638091 71.42578125 165.2890625 C69.87000594 165.56501284 68.31402611 165.83981346 66.7578125 166.11328125 C66.0572876 166.24081787 65.3567627 166.36835449 64.63500977 166.49975586 C60.97334656 167.12144895 57.4709394 167.42373287 53.75292969 167.39550781 C52.95441589 167.3908551 52.1559021 167.38620239 51.33319092 167.38140869 C50.73081604 167.37542664 50.12844116 167.36944458 49.5078125 167.36328125 C49.52415237 166.67138702 49.54049225 165.9794928 49.55732727 165.26663208 C49.70053961 158.70603426 49.780036 152.14799626 49.79021931 145.58577156 C49.7976419 142.212458 49.82859926 138.8429731 49.91577148 135.47070312 C51.12429929 120.17020859 51.12429929 120.17020859 45.85229492 106.55322266 C42.71739588 103.82640962 39.24450394 102.14103648 35.5078125 100.36328125 C33.85774304 99.19752032 32.2327085 97.99486146 30.64453125 96.74609375 C28.36024492 95.06936239 26.07192712 93.3982706 23.78271484 91.72827148 C19.77706925 88.7978255 15.80886745 85.83736233 11.91015625 82.765625 C11.18803955 82.20278809 10.46592285 81.63995117 9.72192383 81.06005859 C8.36169707 79.99597563 7.01067292 78.91998804 5.6706543 77.83056641 C2.25678369 75.05123517 2.25678369 75.05123517 -1.94458008 74.56494141 C-4.63278699 75.4073407 -6.33429473 76.40844903 -8.57421875 78.1015625 C-9.333396 78.6685083 -10.09257324 79.2354541 -10.87475586 79.81958008 C-12.07757202 80.73839966 -12.07757202 80.73839966 -13.3046875 81.67578125 C-14.56067749 82.61877075 -14.56067749 82.61877075 -15.84204102 83.58081055 C-17.56512568 84.87569228 -19.28541948 86.17429596 -21.00292969 87.4765625 C-23.28724574 89.20794681 -25.57879403 90.92896295 -27.875 92.64453125 C-32.64420905 96.17592697 -32.64420905 96.17592697 -37.31298828 99.83666992 C-39.4921875 101.36328125 -39.4921875 101.36328125 -42.58935547 102.6809082 C-46.49827011 104.68456703 -49.39475629 106.47940638 -51.4921875 110.36328125 C-53.57296292 119.30609652 -52.98038555 128.74388992 -52.77972412 137.86785889 C-52.7169943 141.30698297 -52.72286822 144.74595133 -52.72265625 148.18554688 C-52.70848713 154.91306156 -52.62658069 161.63715132 -52.4921875 168.36328125 C-78.08069018 165.36888618 -78.08069018 165.36888618 -89.9921875 162.67578125 C-91.02859375 162.45083984 -92.065 162.22589844 -93.1328125 161.99414062 C-95.58817239 161.4598725 -98.04107054 160.91662156 -100.4921875 160.36328125 C-103.07335923 151.9314536 -103.6369142 144.16834962 -103.60571289 135.37915039 C-103.60585892 134.29548187 -103.60600494 133.21181335 -103.6061554 132.0953064 C-103.60546126 128.52966275 -103.59769227 124.96407197 -103.58984375 121.3984375 C-103.5879778 118.91979501 -103.58655473 116.44115215 -103.58555603 113.96250916 C-103.58174482 107.45074438 -103.57192647 100.93900203 -103.56085205 94.42724609 C-103.55006479 87.77767358 -103.54605197 81.12809451 -103.54101562 74.47851562 C-103.53030294 61.44009462 -103.51343655 48.40168913 -103.4921875 35.36328125 C-102.74188263 35.2496373 -101.99157776 35.13599335 -101.21853638 35.01890564 C-97.79125062 34.49876377 -94.36437478 33.9759674 -90.9375 33.453125 C-89.75712158 33.27438843 -88.57674316 33.09565186 -87.3605957 32.91149902 C-58.92539936 28.56405132 -26.99277066 19.10546499 -4.5 0.34765625 C-2.4921875 -0.63671875 -2.4921875 -0.63671875 0 0 Z " fill="#020202" transform="translate(513.4921875,448.63671875)"/>
<path d="M0 0 C19.48131259 13.38281474 30.30928427 34.11691877 34.5546875 56.98828125 C38.49231038 86.4034741 32.70683297 116.8657757 15 141 C11.57234525 145.23939881 7.84709783 149.14179943 4 153 C3.28199219 153.74121094 2.56398438 154.48242188 1.82421875 155.24609375 C-10.63067904 167.27879162 -27.68074033 173.67352554 -44.83520508 173.47094727 C-62.63260118 172.80018666 -76.50468299 165.45296001 -89 153 C-90.04800781 151.98679687 -90.04800781 151.98679687 -91.1171875 150.953125 C-106.42147487 135.11288983 -112.22812597 112.05682162 -112.25 90.6875 C-112.25100708 90.01115509 -112.25201416 89.33481018 -112.25305176 88.63796997 C-112.24272439 78.40764414 -111.69922302 68.89715107 -109 59 C-108.59974609 57.37771484 -108.59974609 57.37771484 -108.19140625 55.72265625 C-101.88770383 32.60908072 -87.21712493 11.29638871 -66.578125 -1.0546875 C-45.7413459 -12.81959399 -20.46858287 -12.25896156 0 0 Z " fill="#010101" transform="translate(641,223)"/>
<path d="M0 0 C1.71703125 0.72896484 1.71703125 0.72896484 3.46875 1.47265625 C26.08431959 11.87090183 40.44785827 32.19251299 49.25683594 54.91210938 C58.77841289 81.66261073 57.81876204 111.95901056 46.10546875 137.70703125 C43.61065951 142.93538205 40.71823609 147.55238711 37 152 C35.98486328 153.25490234 35.98486328 153.25490234 34.94921875 154.53515625 C23.96260263 167.47321396 9.06648344 176.50966915 -8.02880859 178.20068359 C-26.28216689 179.50244165 -41.52564044 174.36320633 -55.78125 162.73046875 C-58.25215657 160.54609803 -60.63280028 158.29572122 -63 156 C-63.61230469 155.46117187 -64.22460938 154.92234375 -64.85546875 154.3671875 C-81.44568203 139.25756534 -90.79982087 112.36418671 -92.22290039 90.58935547 C-92.69413654 75.96780349 -92.72058681 61.94185732 -88 48 C-87.78569336 47.35434082 -87.57138672 46.70868164 -87.35058594 46.04345703 C-81.01024024 27.35927966 -69.15125294 11.90396952 -52 2 C-47.73996041 0.07240109 -43.44304518 -1.54920974 -39 -3 C-27.36205217 -6.87931594 -10.97059328 -4.86459202 0 0 Z " fill="#010101" transform="translate(440,218)"/>
<path d="M0 0 C10.83675963 9.0250413 17.06622225 20.51445559 20.3359375 34.1015625 C20.86574219 35.9578125 20.86574219 35.9578125 21.40625 37.8515625 C26.73029719 59.39823453 20.2420172 83.43883958 9.3359375 102.1015625 C8.80355469 103.06964844 8.27117187 104.03773438 7.72265625 105.03515625 C-2.22620656 122.04450234 -16.96275568 133.12670134 -34.6640625 141.1015625 C-35.87642578 141.64876953 -35.87642578 141.64876953 -37.11328125 142.20703125 C-49.30522033 146.73911332 -64.9956673 145.24140279 -76.6640625 140.1015625 C-91.54427763 132.82296234 -102.4390772 120.28430819 -107.88134766 104.60498047 C-110.44492953 96.40567648 -111.02170385 88.40617569 -110.9765625 79.8515625 C-110.97164795 78.7490918 -110.9667334 77.64662109 -110.96166992 76.51074219 C-110.59690974 51.10846895 -99.25792832 28.27197242 -81.9765625 9.9140625 C-76.17075516 4.28940359 -69.60527 0.16796017 -62.6640625 -3.8984375 C-61.90996094 -4.341875 -61.15585937 -4.7853125 -60.37890625 -5.2421875 C-41.16341862 -15.65879681 -17.42007807 -12.41372132 0 0 Z " fill="#010101" transform="translate(758.6640625,355.8984375)"/>
<path d="M0 0 C3.57398802 2.79265073 6.81866016 5.77004885 10 9 C10.76957031 9.77085937 11.53914063 10.54171875 12.33203125 11.3359375 C28.94638944 28.82771495 38.43298031 51.96858584 38.25 76 C38.25773438 77.01578125 38.26546875 78.0315625 38.2734375 79.078125 C38.22657241 97.35551074 31.85582156 114.00877673 19.1875 127.3125 C6.93882608 139.02215792 -6.69567576 142.64795808 -23.25390625 142.33984375 C-42.09574182 141.42304941 -58.65132083 128.91777293 -71.1875 115.75 C-83.8475029 101.32441825 -90.29541693 84.54191323 -94 66 C-94.19335938 65.03835938 -94.38671875 64.07671875 -94.5859375 63.0859375 C-97.15320194 43.95255155 -94.21360865 24.35541484 -82.83203125 8.35839844 C-74.3761466 -2.67826489 -63.04942221 -10.06572717 -49.26171875 -12.59375 C-31.28237515 -14.83309339 -14.8100735 -10.29458057 0 0 Z " fill="#010101" transform="translate(338,358)"/>
<path d="M0 0 C0.33 0.66 0.66 1.32 1 2 C0.01965496 4.00970734 -0.98553388 6.00729869 -2 8 C-6.68022879 18.40983623 -6.14029741 29.62084106 -2.1875 40.16796875 C0.19129868 45.92664389 3.33461444 50.97637513 7 56 C7.60714844 56.85851562 7.60714844 56.85851562 8.2265625 57.734375 C39.77199557 98.37573049 107.62739066 111.04525758 155 118.6875 C156.84766968 118.99131592 156.84766968 118.99131592 158.73266602 119.30126953 C179.70746495 122.560784 200.73571641 123.41122735 221.9375 123.375 C223.14734558 123.37445618 224.35719116 123.37391235 225.60369873 123.37335205 C257.04159272 123.30891006 287.75088143 120.81410761 318.43139648 113.80639648 C321.02705215 113.21985679 323.62162632 112.65777049 326.22680664 112.11743164 C336.91803716 109.87388217 347.21995704 106.94368964 357.5625 103.4375 C358.72164413 103.04791107 358.72164413 103.04791107 359.90420532 102.65045166 C391.16094334 92.10600026 431.34982096 76.99824329 448 46 C448.41121094 45.26394531 448.82242187 44.52789063 449.24609375 43.76953125 C452.20575915 37.32790655 452.41276827 30.91313068 452.5 23.9375 C452.51853027 23.01557861 452.53706055 22.09365723 452.55615234 21.14379883 C452.50107421 15.08034396 451.33757288 10.49150167 448.75976562 4.99829102 C448.38368164 4.00913696 448.38368164 4.00913696 448 3 C448.33 2.34 448.66 1.68 449 1 C453.17670296 6.01204355 456.31823791 11.20102837 459.25 17 C459.59095703 17.66386719 459.93191406 18.32773437 460.28320312 19.01171875 C466.38076957 31.35232043 466.41327563 43.63300787 462.2421875 56.6640625 C456.14175135 73.04699479 443.73868348 85.61084682 430 96 C429.47196777 96.40105957 428.94393555 96.80211914 428.39990234 97.21533203 C410.17945762 110.76301609 388.75454176 120.4043691 367.50439453 128.08886719 C365.24998668 128.90905145 363.01281117 129.76265935 360.77734375 130.6328125 C317.61122608 147.10172826 269.25492917 151.46586309 223.4375 151.3125 C222.26545013 151.31034485 221.09340027 151.3081897 219.88583374 151.30596924 C146.30988904 151.09004479 57.83124598 136.87782696 3.09765625 83.2265625 C-8.58052313 71.32290801 -16.82697628 56.55685771 -17.4375 39.625 C-17.02084442 24.33555194 -9.57150096 11.46881033 0 0 Z " fill="#040404" transform="translate(288,506)"/>
<path d="M0 0 C0.99128906 0.495 1.98257813 0.99 3.00390625 1.5 C9.68307525 4.91854547 15.32393549 9.1155261 21 14 C21.82371094 14.68964844 22.64742187 15.37929688 23.49609375 16.08984375 C38.25315281 28.82097271 48.86598213 45.52127939 59 62 C46.54583343 62.68870967 35.13040362 60.66576951 23 58 C21.31197266 57.64228516 21.31197266 57.64228516 19.58984375 57.27734375 C-5.01073642 51.62631639 -30.45406609 40.13004254 -49.140625 22.94921875 C-51.04498615 21.71837773 -51.04498615 21.71837773 -53.4921875 22.640625 C-55.89515081 23.94316586 -57.79638131 25.29692629 -59.875 27.0625 C-86.30176815 48.03062423 -124.13093943 62.49201342 -158.0625 62.0625 C-159.47208984 62.04896484 -159.47208984 62.04896484 -160.91015625 62.03515625 C-161.59980469 62.02355469 -162.28945313 62.01195312 -163 62 C-142.55132447 29.0587889 -119.18992514 0.70854622 -80.18041992 -9.49682617 C-53.27581199 -15.70558185 -24.36122227 -13.22888191 0 0 Z " fill="#020202" transform="translate(564,408)"/>
<path d="M0 0 C3.43839232 1.27490951 6.60240815 2.82838016 9.80395508 4.61303711 C29.52334379 15.57119051 51.52517134 24.00756718 73.49609375 29.03125 C74.21409653 29.19798218 74.9320993 29.36471436 75.67185974 29.53649902 C79.1862112 30.34754314 82.70183141 31.11743141 86.23901367 31.82226562 C95.22739451 33.81955835 99.74572744 36.43954593 105 44 C105.79148437 44.96808594 106.58296875 45.93617188 107.3984375 46.93359375 C108.05070312 47.75988281 108.70296875 48.58617187 109.375 49.4375 C120.37770781 62.91441127 133.64120513 73.32227745 148 83 C148.64195312 83.433125 149.28390625 83.86625 149.9453125 84.3125 C151.29254481 85.21483234 152.64537731 86.10880086 154 87 C151.79160945 89.20839055 150.96508013 89.41599722 148 90.03515625 C147.19433594 90.20466797 146.38867188 90.37417969 145.55859375 90.54882812 C144.71425781 90.71833984 143.86992187 90.88785156 143 91.0625 C142.18660156 91.23587891 141.37320313 91.40925781 140.53515625 91.58789062 C109.94975368 97.89341201 77.63177465 93.77916102 51 77 C26.23978291 60.2548231 11.28476389 39.02610446 2 11 C1.61070312 9.88753906 1.22140625 8.77507813 0.8203125 7.62890625 C-0.02010593 4.93556527 -0.16486541 2.80271205 0 0 Z " fill="#030303" transform="translate(319,623)"/>
<path d="M0 0 C0.66 0 1.32 0 2 0 C0.20036606 19.3460649 -10.06485857 38.06206821 -22 53 C-22.70640625 53.88945313 -23.4128125 54.77890625 -24.140625 55.6953125 C-40.62084692 75.16638951 -64.42741241 86.72945092 -89 92 C-89.77359863 92.17732666 -90.54719727 92.35465332 -91.34423828 92.53735352 C-110.31179051 96.68360171 -131.46435483 94.22785937 -150 89 C-150.66 88.34 -151.32 87.68 -152 87 C-151.47269287 86.64397705 -150.94538574 86.2879541 -150.40209961 85.92114258 C-134.0023121 74.7927789 -117.9294176 63.02182539 -105.375 47.5 C-104.66085937 46.6234375 -103.94671875 45.746875 -103.2109375 44.84375 C-101.06834048 42.27265565 -101.06834048 42.27265565 -100.09545898 40.22290039 C-98.25323029 36.87085189 -96.79127112 35.31259587 -93.17578125 33.88427734 C-89.57227448 32.93595865 -85.96738288 32.16277993 -82.3125 31.4375 C-79.66100557 30.86119993 -77.0143988 30.26358874 -74.3671875 29.66796875 C-73.0894043 29.3848584 -71.81162109 29.10174805 -70.49511719 28.81005859 C-63.12206766 27.10121685 -56.0766734 24.65800779 -49 22 C-47.96020996 21.61328125 -46.92041992 21.2265625 -45.84912109 20.828125 C-21.39450965 13.14883908 -21.39450965 13.14883908 0 0 Z " fill="#030303" transform="translate(703,623)"/>
<path d="M0 0 C2.94194256 2.93581536 5.86060601 5.88474274 8.72265625 8.8984375 C16.46436513 16.92804259 24.26340649 24.26842047 33.3125 30.8125 C53.0215049 45.1159622 70.04899299 64.77558559 74.46875 89.63671875 C74 92 74 92 71.71875 93.95703125 C70.6565625 94.56933594 69.594375 95.18164062 68.5 95.8125 C67.91686035 96.15087891 67.3337207 96.48925781 66.73291016 96.83789062 C64.83650075 97.92098114 62.92356709 98.96597433 61 100 C60.06945801 100.50152588 60.06945801 100.50152588 59.12011719 101.01318359 C49.03181899 106.37734631 38.58656218 110.85718128 28.01464844 115.171875 C26.37000055 115.84791058 24.73436147 116.54582794 23.1015625 117.25 C15.52211308 120.47315457 6.28622767 124 -2 124 C-1.83923477 122.91835571 -1.67846954 121.83671143 -1.51283264 120.72229004 C-0.83952369 115.29976397 -0.82442755 109.90139559 -0.79467773 104.44335938 C-0.78477814 103.31077698 -0.77487854 102.17819458 -0.76467896 101.0112915 C-0.73323419 97.28879852 -0.70837412 93.5662928 -0.68359375 89.84375 C-0.66300951 87.25443196 -0.64201266 84.66511716 -0.62062073 82.07580566 C-0.57117252 75.97038073 -0.52586825 69.86493808 -0.48259836 63.75946665 C-0.43307213 56.80412376 -0.37821148 49.84882609 -0.32291877 42.89352703 C-0.20937389 28.59572721 -0.1024759 14.29788322 0 0 Z " fill="#030303" transform="translate(629,480)"/>
<path d="M0 0 C0.33 0 0.66 0 1 0 C1.00423194 0.56837711 1.00846388 1.13675423 1.01282406 1.72235489 C1.11612577 15.55180309 1.22482436 29.38119979 1.33933926 43.21055984 C1.39455431 49.89833188 1.44809214 56.58610683 1.49731445 63.27392578 C1.54497875 69.72541907 1.59732249 76.17685882 1.65294075 82.62828827 C1.6733549 85.09228944 1.69206954 87.55630528 1.70907402 90.02033234 C1.73313865 93.46575739 1.7631907 96.91108123 1.79467773 100.35644531 C1.8004332 101.37999619 1.80618866 102.40354706 1.81211853 103.45811462 C1.82190735 104.39758438 1.83169617 105.33705414 1.84178162 106.30499268 C1.84823417 107.11985767 1.85468672 107.93472267 1.8613348 108.77428055 C1.99821083 110.97128199 2.42855195 112.88062567 3 115 C3.12205329 117.67540816 3.04467313 120.31961238 3 123 C-3.36202263 122.3611358 -9.14029776 120.53023229 -15.1875 118.5 C-16.24396729 118.14542725 -17.30043457 117.79085449 -18.38891602 117.42553711 C-31.88524456 112.78962577 -44.67549977 106.85125213 -57.3125 100.25 C-57.98788818 99.89752197 -58.66327637 99.54504395 -59.35913086 99.18188477 C-63.84477831 96.7763414 -67.90813247 94.0278761 -72 91 C-69.58688487 67.75529915 -54.47863496 47.60478601 -36.85400391 33.25244141 C-33.97950459 31.0068395 -31.06981583 28.81289635 -28.14233398 26.63696289 C-18.38609772 19.37830519 -9.87631266 11.15719865 -1.86328125 2.01953125 C-1.24839844 1.35308594 -0.63351562 0.68664062 0 0 Z " fill="#010101" transform="translate(393,481)"/>
<path d="M0 0 C3.10429422 0.2903519 6.20842817 0.58228668 9.3125 0.875 C10.15490234 0.95363281 10.99730469 1.03226563 11.86523438 1.11328125 C12.75146484 1.19707031 13.63769531 1.28085937 14.55078125 1.3671875 C15.54875732 1.45991943 16.5467334 1.55265137 17.57495117 1.64819336 C20.04236515 1.90163577 22.50592571 2.19365213 24.96606445 2.51000977 C38.24413505 4.17734952 51.4277725 4.27292557 64.79760742 4.20581055 C68.55980223 4.18751312 72.32174954 4.18530202 76.08398438 4.18554688 C93.27050014 4.16078693 110.22219318 3.76600813 127.2734375 1.4765625 C132.50286479 0.80780974 137.74258579 0.37837451 143 0 C126.27061961 20.2513552 104.71144974 34.8051716 81.8125 47.3125 C80.92723633 47.81152832 80.04197266 48.31055664 79.12988281 48.82470703 C72.90424163 52.1260388 72.90424163 52.1260388 68.9453125 51.57421875 C67.97335937 51.05472656 67.00140625 50.53523437 66 50 C65.3412085 49.68329346 64.68241699 49.36658691 64.00366211 49.0402832 C61.66164204 47.90909292 59.36192976 46.71534981 57.0625 45.5 C56.22710693 45.05857666 55.39171387 44.61715332 54.53100586 44.16235352 C46.66379582 39.93377497 39.26546915 35.18507649 32 30 C30.97648437 29.27167969 29.95296875 28.54335938 28.8984375 27.79296875 C23.29999622 23.69384618 17.92188551 19.35326957 12.625 14.875 C12.05386475 14.39627441 11.48272949 13.91754883 10.89428711 13.42431641 C6.89194839 9.98737907 3.06574 6.3164399 0 2 C0 1.34 0 0.68 0 0 Z " fill="#030303" transform="translate(441,663)"/>
<path d="M0 0 C3.48382223 1.95055228 6.55709425 4.34368739 9.6875 6.8125 C10.52861328 7.45509766 11.36972656 8.09769531 12.23632812 8.75976562 C13.80093156 9.95710291 15.3604105 11.16118985 16.9128418 12.37426758 C18.92418847 13.94094877 20.95584679 15.47647022 23 17 C23.06058594 16.21753906 23.12117187 15.43507813 23.18359375 14.62890625 C23.30927734 13.11103516 23.30927734 13.11103516 23.4375 11.5625 C23.55931641 10.04849609 23.55931641 10.04849609 23.68359375 8.50390625 C24 6 24 6 25 5 C27.33160055 4.90090698 29.66629942 4.87029496 32 4.875 C33.27875 4.87242187 34.5575 4.86984375 35.875 4.8671875 C39 5 39 5 40 6 C39.93780173 7.70525359 39.82170786 9.40858609 39.68359375 11.109375 C38.76582553 22.792248 38.76582553 22.792248 42.71289062 33.39111328 C46.91995632 37.34839641 51.73988263 40.19372557 56.83740234 42.86181641 C64.42852765 46.85705531 64.42852765 46.85705531 66 50 C66.4524237 56.22082585 66.4524237 56.22082585 64.875 58.9375 C61.97057131 60.58334293 60.33720481 60.43710541 57 60 C53.85035753 58.26353908 51.08102783 56.08412992 48.25 53.875 C47.41726563 53.24335937 46.58453125 52.61171875 45.7265625 51.9609375 C43.13804347 49.99022211 40.56689359 47.99877819 38 46 C36.84467773 45.1032959 36.84467773 45.1032959 35.66601562 44.18847656 C32.70723963 41.89021061 29.7522459 39.58712892 26.79882812 37.28198242 C21.14687816 32.87587235 15.47471731 28.49876156 9.75 24.1875 C8.96367188 23.58228516 8.17734375 22.97707031 7.3671875 22.35351562 C1.77424644 18.02665808 1.77424644 18.02665808 -5 17 C-7.84281997 18.35494117 -10.25158148 20.15824956 -12.75 22.0625 C-13.48879395 22.60471191 -14.22758789 23.14692383 -14.98876953 23.70556641 C-21.108938 28.23085226 -27.11194477 32.916363 -33.09521484 37.62060547 C-40.95763502 43.79614809 -49.01046282 49.70572788 -57.08740234 55.59643555 C-58.43173434 56.58297686 -59.739865 57.61983609 -61.01806641 58.69067383 C-63 60 -63 60 -66.625 59.8125 C-70 59 -70 59 -72 57 C-72.6875 53.875 -72.6875 53.875 -72 50 C-69.51121903 46.76603171 -66.24564586 44.42849598 -63 42 C-62.31309082 41.4848584 -61.62618164 40.9697168 -60.91845703 40.43896484 C-56.86425274 37.41365863 -52.78786993 34.41995171 -48.69921875 31.44140625 C-43.91228185 27.9491637 -39.22217524 24.34906995 -34.5390625 20.71875 C-27.45171728 15.24811307 -20.25351057 9.92062708 -13.08374023 4.55883789 C-11.68005452 3.50874612 -10.29454036 2.43397043 -8.92724609 1.33691406 C-5.74387298 -0.87136453 -3.79990858 -0.60444341 0 0 Z " fill="#F8F8F8" transform="translate(515,499)"/>
<path d="M0 0 C3.68883356 1.72768154 5.4698088 2.72619757 7.78515625 6.19921875 C8.15125 5.76609375 8.51734375 5.33296875 8.89453125 4.88671875 C12.68973267 0.983083 15.41629651 -0.26154311 20.91015625 -0.36328125 C26.90351666 -0.24652748 30.13502701 1.76910674 34.59765625 5.63671875 C37.58593526 9.45981857 37.49072446 13.42591749 37.2421875 18.125 C35.17607876 32.02267164 22.01579054 41.85693915 11.6875 50.22265625 C9.78515625 51.19921875 9.78515625 51.19921875 7.9296875 51.1484375 C4.79432744 49.76065518 2.21007249 47.74542885 -0.46484375 45.63671875 C-1.04041016 45.18635254 -1.61597656 44.73598633 -2.20898438 44.27197266 C-10.19331214 37.93424447 -17.90277561 31.13542317 -21.21484375 21.19921875 C-21.70040701 15.68290168 -21.93306294 10.80802974 -19.65234375 5.69921875 C-14.07292403 -0.02326302 -7.94110342 -2.87112205 0 0 Z " fill="#030303" transform="translate(504.21484375,555.80078125)"/>
<path d="M0 0 C0.33 0.66 0.66 1.32 1 2 C0.07137808 4.03412421 -0.93753473 6.03247172 -2 8 C-2.391875 8.78375 -2.78375 9.5675 -3.1875 10.375 C-3.455625 10.91125 -3.72375 11.4475 -4 12 C-4.33 11.34 -4.66 10.68 -5 10 C-5.99 10.495 -5.99 10.495 -7 11 C-5.5140084 6.40693504 -3.14985318 3.56430755 0 0 Z " fill="#2E2E2E" transform="translate(288,506)"/>
<path d="M0 0 C2.5 2.3125 2.5 2.3125 5 5 C5 5.99 5 6.98 5 8 C4.01 8.495 4.01 8.495 3 9 C2.01 6.03 1.02 3.06 0 0 Z " fill="#2B2B2B" transform="translate(736,507)"/>
</svg>
